<?xml version="1.0" encoding="UTF-8"?>
<svg width="199px" height="26px" viewBox="0 0 199 26" version="1.1" xmlns="http://www.w3.org/2000/svg" xmlns:xlink="http://www.w3.org/1999/xlink">
    <!-- Generator: sketchtool 48.2 (47327) - http://www.bohemiancoding.com/sketch -->
    <title>CBFF2E63-C62B-4489-A0CA-9CAF988E5531</title>
    <desc>Created with sketchtool.</desc>
    <defs></defs>
    <g id="Home" stroke="none" stroke-width="1" fill="none" fill-rule="evenodd" transform="translate(-50.000000, -22.000000)">
        <g id="LP_logo_solid-gray" transform="translate(50.000000, 22.000000)" fill="#FFFFFF" fill-rule="nonzero">
            <polygon id="Shape" points="0 0 5.6 0 5.6 19.8 15.3 19.8 15.3 24.5 0 24.5"></polygon>
            <polygon id="Shape" points="188.2 24.5 182.7 24.5 182.7 4.6 173 4.6 173 0 188.2 0"></polygon>
            <rect id="Rectangle-path" x="19" y="0" width="5.6" height="24.5"></rect>
            <path d="M29,0 L35.5,0 L40.5,9 C42,11.6 43.4,14.6 44.5,17.4 L44.6,17.4 C44.2,14.2 44.1,10.9 44.1,7.2 L44.1,0 L49.2,0 L49.2,24.5 L43.4,24.5 L38.1,15.1 C36.6,12.5 35,9.3 33.9,6.5 L33.8,6.5 C34,9.7 34.1,13.2 34.1,17.2 L34.1,24.5 L29,24.5 L29,0 Z" id="Shape"></path>
            <path d="M54,0 L59.5,0 L59.5,10.8 L59.6,10.8 C60.1,9.9 60.7,9 61.3,8.1 L66.9,3.33066907e-16 L73.7,3.33066907e-16 L65.6,10.4 L74.1,24.4 L67.7,24.4 L61.7,13.9 L59.6,16.4 L59.6,24.4 L54.1,24.4 L54.1,0 L54,0 Z" id="Shape"></path>
            <path d="M83.3,11.8 C86.2,11.8 88,10.3 88,7.8 C88,5.6 86.5,4.2 83.7,4.2 C82.6,4.2 81.8,4.2 81.4,4.3 L81.4,11.6 C81.9,11.7 82.5,11.8 83.3,11.8 Z M76,0.5 C77.7,0.2 80.2,0 83.5,0 C86.9,0 89.3,0.7 91,2 C92.5,3.2 93.6,5.2 93.6,7.7 C93.6,10.1 92.8,12.1 91.3,13.5 C89.4,15.3 86.6,16.1 83.4,16.1 C82.6,16.1 82,16 81.5,16 L81.5,24.7 L76,24.7 L76,0.5 Z" id="Shape"></path>
            <path d="M104.6,11 C107.4,11 109,9.6 109,7.5 C109,5.3 107.4,4.1 104.9,4.1 C103.6,4.1 102.8,4.2 102.4,4.3 L102.4,11.1 L104.6,11.1 L104.6,11 Z M97,0.5 C98.8,0.2 101.4,0 104.4,0 C108,0 110.6,0.5 112.3,1.9 C113.8,3.1 114.6,4.8 114.6,7 C114.6,10.1 112.4,12.3 110.3,13 L110.3,13.1 C112,13.8 113,15.4 113.6,17.7 C114.4,20.5 115.1,23.7 115.6,24.6 L109.9,24.6 C109.5,23.9 108.9,22 108.2,18.9 C107.5,15.9 106.5,15 104.2,15 L102.5,15 L102.5,24.6 L97,24.6 L97,0.5 Z" id="Shape"></path>
            <path d="M135.7,12.7 C135.7,8.6 133.9,4.4 129.8,4.4 C125.9,4.4 123.8,8.1 123.8,12.7 C123.8,17.2 125.9,20.9 129.7,20.9 C133.7,20.9 135.7,17.1 135.7,12.7 M118,12.8 C118,5.2 122.8,0 130,0 C137.4,0 141.5,5.4 141.5,12.6 C141.5,20.8 136.1,25.3 129.5,25.3 C122.5,25.3 118,20.1 118,12.8" id="Shape"></path>
            <polygon id="Shape" points="145 0 159.9 0 159.9 4.5 150.5 4.5 150.5 10.2 159.3 10.2 159.3 14.6 150.5 14.6 150.5 24.5 145 24.5"></polygon>
            <rect id="Rectangle-path" x="164" y="0" width="5.6" height="24.5"></rect>
            <rect id="Rectangle-path" x="194" y="0" width="4.6" height="4.6"></rect>
        </g>
    </g>
</svg>